<svg xmlns="http://www.w3.org/2000/svg" viewBox="0 0 110.06 109"><defs><style>.cls-1{fill:#fff;}</style></defs><g id="Capa_2" data-name="Capa 2"><g id="Capa_1-2" data-name="Capa 1"><path class="cls-1" d="M46.24,70.75V109C21.52,106.63-3.53,82.8.41,48.12,3.71,19.08,27.52-.82,55.74,0,90.6,1.07,111,27.86,110,57c-1,29.74-23.64,49.74-45.64,51.8V71H76.8c.75-5.49,1.43-10.57,2.18-16.13H63.47c.75-5.3.4-10.53,2.34-14.7,2.49-5.36,8.65-2.43,13.42-3.44V22.61c-7.75-1.46-15.8-2.56-23.34,1.28-6,3.07-9.22,8.61-9.51,15.46-.2,4.95,0,9.92,0,15.32H32V70.75Z"/></g></g></svg>