<svg xmlns="http://www.w3.org/2000/svg" viewBox="0 0 110.07 109.81"><defs><style>.cls-1{fill:#fff;}</style></defs><g id="Capa_2" data-name="Capa 2"><g id="Capa_1-2" data-name="Capa 1"><path class="cls-1" d="M55.19,0C25-.13,1.14,22.86,0,53.56c-1.15,31.66,25.83,57.7,54.86,56.19,30.2,1.39,54.38-24.58,55.15-52.26C111,24.18,85.9.14,55.19,0ZM89.73,69.6c-.47,11.82-7.46,20.09-20.24,19.93-4.84,0-9.68,0-14.53,0v0c-6.05,0-12.23.76-18.14-.17-11-1.72-15.8-8.58-16.43-19.5a292.4,292.4,0,0,1,0-29.46c.52-12,7.44-19.45,20.18-19.61,5.87-.06,11.74-.71,17.61-.71,5.19,0,10.52-.13,15.54,1,11.77,2.56,15.39,9,16,19.52C90.25,50.19,90.13,59.92,89.73,69.6Z"/><path class="cls-1" d="M67.79,27.31q-12.72-.25-25.44,0c-9.87.19-14.79,5.36-14.79,15.19V55c0,5-.09,10,0,14.94C27.75,77.13,32,81.82,39,82.19c9.35.49,18.74.9,28.09.79,11-.13,15.4-5.1,15.4-16.19V42.56C82.53,32.66,77.67,27.51,67.79,27.31Zm-12.87,46A18.12,18.12,0,0,1,37,54.61,18.47,18.47,0,0,1,55.17,36.93C64.29,37,74,44.81,72.83,55.28,73.82,65.81,64.15,73.4,54.92,73.31ZM73.07,41c-3.14.46-4.6-1.78-4.08-4.47a6.62,6.62,0,0,1,4.08-4.24c2.92-.71,4.5,1.36,4.63,4.4S76.4,41.16,73.07,41Z"/><path class="cls-1" d="M55.12,66.08c-6,0-11.54-5.41-11.36-11A11.65,11.65,0,0,1,55,44.25c6,0,11.84,5.43,11.28,11C65.61,61.63,60.59,66.34,55.12,66.08Z"/></g></g></svg>