<svg xmlns="http://www.w3.org/2000/svg" viewBox="0 0 110.08 109.81"><defs><style>.cls-1{fill:#fff;}</style></defs><g id="Capa_2" data-name="Capa 2"><g id="Capa_1-2" data-name="Capa 1"><path class="cls-1" d="M55.08,0C24.88.18.85,22.71,0,54.24c-.83,31.1,25.53,56.84,54.58,55.51,31.15,1.4,54.39-25,55.43-51.62C111.35,24.58,85.84-.18,55.08,0ZM38.66,82.46A4,4,0,0,1,36,85.36c-11.79,1.37-11.8,1.3-11.8-10.4V41.82c4.21,0,7.83.07,11.45,0,2.24-.06,3.14.83,3.13,3.09C38.75,57.41,38.85,69.94,38.66,82.46ZM31.6,36.16c-5.17,0-8.18-3-8.18-8.13,0-4.73,3-8,7.47-8a8.25,8.25,0,0,1,8.7,8.24C39.51,33.08,36.43,36.15,31.6,36.16Zm57.34,46c0,2.39-.76,3.43-3.26,3.37-14-.35-11,2.16-11.3-10.62-.12-4.85.07-9.7,0-14.54s-2.49-7.27-7-7.21c-4.12.06-6.6,2.62-6.66,7.25-.11,7.14-.13,14.27,0,21.41.06,2.82-.92,3.91-3.74,3.72s-5.41.19-8.06-.16c-1-.14-2.66-1.58-2.67-2.45-.17-13.56-.12-27.12-.12-41H59.5c.18,1.15.34,2.28.52,3.51.38-.16.83-.2,1-.45,5.67-6.52,19-6.8,24.12,1.12,2.29,3.53,3.26,8.33,3.57,12.66C89.31,66.5,88.86,74.34,88.94,82.14Z"/></g></g></svg>