<svg xmlns="http://www.w3.org/2000/svg" viewBox="0 0 110.1 109.79"><defs><style>.cls-1{fill:#fff;}</style></defs><g id="Capa_2" data-name="Capa 2"><g id="Capa_1-2" data-name="Capa 1"><path class="cls-1" d="M55.07,0C23.89,0,2.05,23.51.13,51.62c-2.26,32.84,25.18,59.69,55,58.11,30.16,1.36,54.69-24.6,55-53.06C110.48,22.85,85,0,55.07,0ZM85.68,49.88,69.72,46c0,6.39.2,13.12,0,19.82-.29,7.46-2.18,14.3-8.21,19.52-10,8.62-28.85,6.92-35.52-7.86-6-13.33,1.9-28.22,13.81-31.17.25,0,.47-.29.72-.33,10.55-1.48,10-2.62,9.85,7.76,0,1.6,0,3.2,0,4.77a47.27,47.27,0,0,0-6.31.39c-4.76.95-6.83,4.81-7.18,8.87-.32,3.77,2.13,6.89,5.73,8.8a8.06,8.06,0,0,0,9.61-1.09,12.23,12.23,0,0,0,3.64-7.84c.36-14.4.17-28.81.17-43.21,0-5.22,0-5.22,5.39-5.22a7.27,7.27,0,0,0,.81,0c4.22-.39,6.76-.07,8.23,5.48,1.79,6.72,7.75,10.81,15.28,11.82Z"/></g></g></svg>