<svg xmlns="http://www.w3.org/2000/svg" viewBox="0 0 109.95 109.95"><defs><style>.cls-1{fill:#fff;}</style></defs><g id="Capa_2" data-name="Capa 2"><g id="Capa_1-2" data-name="Capa 1"><path class="cls-1" d="M55,0a55,55,0,1,0,55,55A55,55,0,0,0,55,0ZM83.13,84.45c-5.12,0-10.24,0-15.36,0a2.58,2.58,0,0,1-1.72-1.11c-4.75-6.81-9.44-13.66-14.14-20.5-.29-.41-.59-.81-1-1.32-2.4,2.78-4.71,5.45-7,8.13-4,4.65-8,9.32-12,13.93a3.28,3.28,0,0,1-1.9.89,34.62,34.62,0,0,1-3.87,0L48.73,58.17,26.3,25.59c.58-.05.95-.11,1.33-.11,4.81,0,9.63,0,14.44,0a2.06,2.06,0,0,1,2,1c4.67,6.86,9.39,13.68,14.17,20.62,2.69-3.12,5.34-6.17,8-9.23,3.34-3.88,6.66-7.78,10-11.63a2.48,2.48,0,0,1,1.51-.75c1.24-.11,2.5,0,4.16,0-7.26,8.44-14.29,16.64-21.4,24.91L83.81,84.33A5.18,5.18,0,0,1,83.13,84.45Z"/></g></g></svg>